<svg xmlns="http://www.w3.org/2000/svg" xmlns:xlink="http://www.w3.org/1999/xlink" xmlns:xodm="http://www.corel.com/coreldraw/odm/2003" xmlns:svgjs="http://svgjs.com/svgjs" xml:space="preserve" width="250px" height="88px" style="shape-rendering:geometricPrecision; text-rendering:geometricPrecision; image-rendering:optimizeQuality; fill-rule:evenodd; clip-rule:evenodd" viewBox="0 0 250 88"> <defs> <style type="text/css"> <![CDATA[ .fil4 {fill:#444444} .fil2 {fill:#505B50} .fil1 {fill:#7B7B7B} .fil3 {fill:#F5A623} .fil0 {fill:white} ]]> </style> </defs> <g id="Layer_x0020_1"> <metadata id="CorelCorpID_0Corel-Layer"></metadata> <rect id="SvgjsRect29333" class="fil0" x="-1366" y="1548" width="500" height="500"></rect> <g id="SvgjsG29334"> <g id="SvgjsG14173"> <g id="SvgjsG14174"> <path class="fil1" d="M9.65 48.73l0 12.33 1.56 0 0 -12.33 9.65 -17.59 -1.56 0 -5.17 9.7c-0.48,1.03 -1.46,2.8 -2.92,5.3l-0.68 1.13 -0.2 0c-1.03,-1.81 -1.91,-3.41 -2.63,-4.8l-0.88 -1.63 -5.16 -9.7 -1.66 0 9.65 17.59zm24.83 10.94c1.96,1.29 4.22,1.93 6.75,1.93 2.53,0 4.79,-0.64 6.75,-1.93 1.96,-1.28 3.51,-3.11 4.63,-5.48 1.12,-2.37 1.68,-5.1 1.68,-8.18 0,-3.08 -0.55,-5.79 -1.66,-8.12 -1.1,-2.32 -2.65,-4.12 -4.63,-5.39 -1.98,-1.27 -4.24,-1.91 -6.77,-1.91 -2.53,0 -4.79,0.64 -6.77,1.91 -1.99,1.27 -3.53,3.07 -4.63,5.39 -1.11,2.33 -1.66,5.04 -1.66,8.12 0,3.08 0.56,5.81 1.68,8.18 1.12,2.37 2.67,4.2 4.63,5.48zm12.72 -1.2c-1.74,1.18 -3.73,1.77 -5.97,1.77 -2.24,0 -4.23,-0.59 -5.97,-1.77 -1.74,-1.17 -3.08,-2.84 -4.02,-4.98 -0.94,-2.15 -1.41,-4.64 -1.41,-7.48 0,-2.84 0.47,-5.32 1.41,-7.44 0.94,-2.11 2.28,-3.74 4,-4.9 1.72,-1.14 3.72,-1.72 5.99,-1.72 2.28,0 4.27,0.58 5.99,1.72 1.72,1.16 3.06,2.79 4,4.9 0.94,2.12 1.41,4.6 1.41,7.44 0,2.84 -0.47,5.33 -1.41,7.48 -0.94,2.14 -2.28,3.81 -4.02,4.98zm22.46 0.46c2,1.78 4.51,2.67 7.54,2.67 3.01,0 5.54,-0.89 7.57,-2.67 2.03,-1.79 3.05,-4.79 3.05,-9.02l0 -18.77 -1.46 0 0 18.41c0,3.83 -0.86,6.57 -2.56,8.22 -1.71,1.65 -3.91,2.47 -6.6,2.47 -2.64,0 -4.79,-0.82 -6.47,-2.47 -1.67,-1.65 -2.5,-4.39 -2.5,-8.22l0 -18.41 -1.56 0 0 18.77c0,4.23 1,7.23 2.99,9.02zm39.7 -26.52l0 28.65 1.56 0 0 -28.65 10.43 0 0 -1.27 -22.42 0 0 1.27 10.43 0zm23.19 -1.27l0 29.92 1.57 0 0 -15.33 18.03 0 0 15.33 1.55 0 0 -29.92 -1.55 0 0 13.33 -18.03 0 0 -13.33 -1.57 0z"></path> </g> <g id="SvgjsG14175"> <path class="fil2" d="M167.34 34.42l7.27 22.45 0.91 0 6.97 -23.41 0 20.9c0,0.64 -0.34,0.95 -1.03,0.95l-2.74 0 0 1.14 11.04 0 0 -1.14 -2.74 0c-0.68,0 -1.03,-0.31 -1.03,-0.95l0 -21.04c0,-0.33 0.09,-0.57 0.25,-0.73 0.17,-0.15 0.43,-0.23 0.78,-0.23l2.74 0 0 -1.13 -7.88 0 -5.78 19.51 -6.21 -19.51 -8.07 0 0 1.13 2.74 0c0.36,0 0.62,0.08 0.78,0.23 0.17,0.16 0.25,0.4 0.25,0.73l0 19.16c0,0.88 -0.22,1.57 -0.67,2.07 -0.44,0.51 -1.02,0.76 -1.73,0.76l-1.37 0 0 1.14 9.06 0 0 -1.14 -1.37 0c-0.71,0 -1.29,-0.25 -1.73,-0.76 -0.45,-0.5 -0.67,-1.19 -0.67,-2.07l0 -18.06 0.23 0zm35.83 20.79c1.67,1.25 3.57,1.88 5.71,1.88 2.13,0 4.03,-0.63 5.71,-1.88 1.67,-1.26 2.98,-2.9 3.92,-4.94 0.94,-2.05 1.41,-4.19 1.41,-6.43 0,-2.24 -0.47,-4.39 -1.41,-6.43 -0.94,-2.04 -2.25,-3.69 -3.92,-4.94 -1.68,-1.25 -3.58,-1.88 -5.71,-1.88 -2.14,0 -4.04,0.63 -5.71,1.88 -1.68,1.25 -2.99,2.9 -3.93,4.94 -0.94,2.04 -1.4,4.19 -1.4,6.43 0,2.24 0.46,4.38 1.4,6.43 0.94,2.04 2.25,3.68 3.93,4.94zm11.07 -2.43c-1.09,2.12 -2.87,3.17 -5.36,3.17 -2.49,0 -4.28,-1.05 -5.37,-3.17 -1.09,-2.11 -1.64,-5.09 -1.64,-8.94 0,-3.87 0.55,-6.86 1.64,-8.96 1.09,-2.1 2.88,-3.15 5.37,-3.15 2.49,0 4.27,1.05 5.36,3.15 1.1,2.1 1.64,5.09 1.64,8.96 0,3.85 -0.54,6.83 -1.64,8.94zm13.75 2.53l0 1.14 12.83 0c1.63,0 3.12,-0.27 4.47,-0.8 1.36,-0.53 2.45,-1.32 3.26,-2.35 0.81,-1.05 1.22,-2.28 1.22,-3.72 0,-1.16 -0.34,-2.2 -1.01,-3.12 -0.67,-0.92 -1.52,-1.65 -2.55,-2.18 -1.03,-0.53 -2.06,-0.83 -3.11,-0.9l0 -0.14c1.56,-0.31 2.91,-0.98 4.08,-2.03 1.17,-1.03 1.75,-2.36 1.75,-3.96 0,-1.15 -0.39,-2.19 -1.18,-3.1 -0.79,-0.91 -1.83,-1.62 -3.14,-2.14 -1.31,-0.52 -2.71,-0.78 -4.21,-0.78l-12.41 0 0 1.13 2.74 0c0.35,0 0.62,0.08 0.78,0.23 0.16,0.16 0.25,0.4 0.25,0.73l0 21.04c0,0.64 -0.35,0.95 -1.03,0.95l-2.74 0zm12.26 -12.6l-4.99 0 0 -9.39c0,-0.33 0.08,-0.57 0.25,-0.73 0.16,-0.15 0.42,-0.23 0.78,-0.23l4.26 0c1.43,0 2.62,0.46 3.58,1.39 0.97,0.92 1.45,2.08 1.45,3.5 0,1.67 -0.37,3 -1.13,3.98 -0.74,0.99 -2.14,1.48 -4.2,1.48zm0.15 12.6l-4.11 0c-0.69,0 -1.03,-0.31 -1.03,-0.95l0 -10.52 5.14 0c1.55,0 2.83,0.43 3.83,1.29 1,0.86 1.5,2.35 1.5,4.45 0,2.09 -0.5,3.58 -1.5,4.44 -1,0.86 -2.28,1.29 -3.83,1.29z"></path> </g> <rect id="SvgjsRect14176" class="fil3" transform="matrix(4.586E-15 0.16107 -0.173158 4.26588E-15 153.962 -0.000595323)" width="546.35" height="12.49"></rect> <g id="SvgjsG14177"> <path class="fil4" d="M176.79 73.98l0 -10.65c0,-0.24 -0.07,-0.46 -0.23,-0.64 -0.16,-0.19 -0.35,-0.31 -0.6,-0.38 -0.25,-0.06 -0.49,-0.05 -0.73,0.04 -0.23,0.09 -0.41,0.23 -0.55,0.43l-5.12 8.28 -5.12 -8.28c-0.06,-0.1 -0.14,-0.18 -0.23,-0.26 -0.1,-0.07 -0.2,-0.12 -0.31,-0.16 -0.11,-0.04 -0.23,-0.07 -0.35,-0.08 -0.12,-0.01 -0.24,0 -0.36,0.03 -0.25,0.07 -0.45,0.19 -0.6,0.38 -0.16,0.18 -0.23,0.4 -0.23,0.64l0 10.65 2.25 0 0 -6.87 4 6.52c0.1,0.17 0.23,0.29 0.4,0.38 0.18,0.08 0.36,0.13 0.55,0.13 0.2,0 0.39,-0.05 0.57,-0.13 0.17,-0.09 0.31,-0.21 0.41,-0.38l3.99 -6.52 0 6.87 2.26 0zm14.25 -2.94l0 -2.83c0,-0.3 -0.05,-0.62 -0.17,-0.96 -0.11,-0.35 -0.29,-0.66 -0.54,-0.95 -0.25,-0.3 -0.57,-0.54 -0.98,-0.73 -0.4,-0.19 -0.89,-0.29 -1.47,-0.29l-4.05 0c-0.32,0 -0.66,0.05 -1.03,0.15 -0.36,0.11 -0.7,0.27 -1.02,0.5 -0.31,0.24 -0.58,0.54 -0.79,0.91 -0.21,0.38 -0.31,0.83 -0.31,1.37l0 2.83c0,0.54 0.1,1 0.31,1.37 0.21,0.37 0.48,0.68 0.79,0.91 0.32,0.23 0.66,0.4 1.02,0.51 0.37,0.1 0.71,0.15 1.03,0.15l4.05 0c0.22,0 0.44,-0.03 0.68,-0.07 0.24,-0.05 0.48,-0.12 0.71,-0.21 0.23,-0.1 0.46,-0.23 0.67,-0.38 0.21,-0.15 0.4,-0.33 0.57,-0.56 0.16,-0.21 0.29,-0.46 0.38,-0.75 0.1,-0.29 0.15,-0.61 0.15,-0.97zm-2.25 -2.82l0 2.82c0,0.28 -0.08,0.48 -0.22,0.63 -0.15,0.14 -0.38,0.21 -0.69,0.21l-4.04 0c-0.29,0 -0.53,-0.07 -0.68,-0.21 -0.15,-0.15 -0.24,-0.35 -0.24,-0.63l0 -2.83c0,-0.28 0.09,-0.48 0.24,-0.62 0.15,-0.15 0.39,-0.22 0.68,-0.22l4.04 0c0.3,0 0.52,0.07 0.68,0.21 0.15,0.14 0.23,0.35 0.23,0.64zm16.24 2.82l0 -2.83c0,-0.36 -0.04,-0.69 -0.14,-0.97 -0.1,-0.28 -0.23,-0.53 -0.39,-0.75 -0.16,-0.22 -0.35,-0.4 -0.56,-0.56 -0.22,-0.15 -0.44,-0.27 -0.68,-0.37 -0.23,-0.09 -0.46,-0.16 -0.7,-0.22 -0.24,-0.04 -0.46,-0.06 -0.68,-0.06l-4.05 0 0 2.09 4.05 0c0.27,0 0.49,0.07 0.65,0.22 0.17,0.15 0.26,0.36 0.26,0.62l0 2.83c0,0.25 -0.08,0.46 -0.24,0.61 -0.16,0.16 -0.38,0.23 -0.67,0.23l-4.05 0c-0.26,0 -0.47,-0.07 -0.65,-0.22 -0.17,-0.16 -0.26,-0.36 -0.26,-0.62l0 -9.44 -2.25 0 0 9.44c0,0.36 0.05,0.68 0.15,0.97 0.1,0.29 0.23,0.54 0.39,0.75 0.17,0.23 0.35,0.41 0.57,0.56 0.21,0.15 0.43,0.28 0.67,0.38 0.23,0.09 0.47,0.16 0.7,0.21 0.24,0.04 0.47,0.07 0.68,0.07l4.05 0c0.39,0 0.74,-0.05 1.04,-0.14 0.31,-0.09 0.58,-0.21 0.81,-0.37 0.24,-0.15 0.44,-0.32 0.6,-0.52 0.16,-0.2 0.3,-0.41 0.4,-0.63 0.1,-0.21 0.18,-0.43 0.23,-0.65 0.05,-0.22 0.07,-0.43 0.07,-0.63zm5.98 -7.55l0 -1.89 -2.25 0 0 1.89 2.25 0zm0 10.49l0 -8.7 -2.25 0 0 8.7 2.25 0zm8.03 0l0 -2.1 -1 0c-0.26,0 -0.47,-0.07 -0.65,-0.22 -0.17,-0.16 -0.26,-0.36 -0.26,-0.62l0 -9.44 -2.25 0 0 9.44c0,0.54 0.11,1 0.32,1.37 0.2,0.37 0.47,0.68 0.78,0.91 0.32,0.23 0.66,0.4 1.03,0.51 0.37,0.1 0.71,0.15 1.03,0.15l1 0zm5.51 -10.49l0 -1.89 -2.25 0 0 1.89 2.25 0zm0 10.49l0 -8.7 -2.25 0 0 8.7 2.25 0zm13.98 -5.82c0,-0.53 -0.1,-0.97 -0.31,-1.34 -0.21,-0.37 -0.46,-0.67 -0.77,-0.89 -0.31,-0.23 -0.65,-0.39 -1.01,-0.5 -0.36,-0.1 -0.69,-0.15 -1.01,-0.15l-4.05 0c-0.57,0 -1.05,0.1 -1.44,0.29 -0.4,0.19 -0.72,0.43 -0.96,0.72 -0.25,0.29 -0.42,0.59 -0.54,0.93 -0.11,0.34 -0.16,0.65 -0.16,0.94l0 2.94c0,0.52 0.1,0.97 0.31,1.34 0.21,0.36 0.47,0.66 0.78,0.89 0.31,0.23 0.64,0.39 1,0.5 0.36,0.1 0.7,0.15 1.01,0.15l4.05 0 0 -2 -4.04 0c-0.27,0 -0.51,-0.08 -0.69,-0.23 -0.19,-0.16 -0.28,-0.37 -0.28,-0.65l0 -2.93c0,-0.25 0.08,-0.47 0.25,-0.64 0.16,-0.18 0.4,-0.26 0.71,-0.26l4.05 0c0.27,0 0.5,0.07 0.69,0.23 0.18,0.15 0.27,0.37 0.27,0.64 0,0.26 -0.08,0.48 -0.25,0.65 -0.16,0.17 -0.4,0.26 -0.71,0.26l-4.05 0 0 1.99 4.05 0c0.57,0 1.05,-0.1 1.44,-0.29 0.4,-0.19 0.72,-0.43 0.97,-0.72 0.24,-0.29 0.42,-0.6 0.53,-0.94 0.1,-0.33 0.16,-0.64 0.16,-0.93zm11.47 -0.79l0 -2.09 -5.08 0c-0.21,0 -0.43,0.02 -0.67,0.06 -0.24,0.06 -0.47,0.13 -0.71,0.22 -0.23,0.1 -0.45,0.22 -0.67,0.37 -0.21,0.16 -0.4,0.34 -0.56,0.56 -0.17,0.22 -0.3,0.47 -0.4,0.75 -0.1,0.28 -0.14,0.61 -0.14,0.97l0 5.77 2.25 0 0 -5.77c0,-0.28 0.07,-0.48 0.23,-0.62 0.15,-0.15 0.38,-0.22 0.69,-0.22l5.06 0z"></path> </g> </g> </g> </g> </svg>