{
  "asset": {
    "version": "2.0",
    "generator": "Sketchup glTF Exporter by Evan Prananta."
  },
  "scene": 0,
  "scenes": [
    {
      "nodes": [
        0
      ]
    }
  ],
  "samplers": [
    {
    }
  ],
  "nodes": [
    {
      "name": "root",
      "mesh": 0
    }
  ],
  "materials": [
    {
      "pbrMetallicRoughness": {
        "baseColorFactor": [
          0.009,
          0.009,
          0.009,
          1.0
        ],
        "metallicFactor": 0.75,
        "roughnessFactor": 0.0
      },
      "name": "XN - Metal Preto",
      "doubleSided": true
    },
    {
      "pbrMetallicRoughness": {
        "baseColorFactor": [
          0.9914,
          0.9914,
          0.9914,
          1.0
        ],
        "metallicFactor": 0.1,
        "roughnessFactor": 0.9
      },
      "name": "XN - Globo",
      "doubleSided": true
    },
    {
      "pbrMetallicRoughness": {
        "baseColorFactor": [
          0.6121,
          0.6121,
          0.6121,
          1.0
        ],
        "metallicFactor": 0.1,
        "roughnessFactor": 0.5
      },
      "name": "default material",
      "doubleSided": true
    },
    {
      "pbrMetallicRoughness": {
        "baseColorFactor": [
          0.4259,
          0.148,
          0.0738,
          1.0
        ],
        "metallicFactor": 0.1,
        "roughnessFactor": 0.9
      },
      "name": "XN - Cobre",
      "doubleSided": true
    }
  ],
  "meshes": [
    {
      "primitives": [
        {
          "attributes": {
            "POSITION": 0,
            "NORMAL": 1
          },
          "indices": 2,
          "mode": 4,
          "material": 0
        },
        {
          "attributes": {
            "POSITION": 0,
            "NORMAL": 1
          },
          "indices": 3,
          "mode": 4,
          "material": 1
        },
        {
          "attributes": {
            "POSITION": 0,
            "NORMAL": 1
          },
          "indices": 4,
          "mode": 4,
          "material": 2
        },
        {
          "attributes": {
            "POSITION": 0,
            "NORMAL": 1
          },
          "indices": 5,
          "mode": 4,
          "material": 3
        }
      ]
    }
  ],
  "accessors": [
    {
      "bufferView": 0,
      "componentType": 5126,
      "count": 22880,
      "type": "VEC3",
      "min": [
        -0.4018944369911862,
        -0.2999999999999999,
        -0.4040865641511144
      ],
      "max": [
        0.3981055630088133,
        3.461222885727347e-18,
        0.3959134358488851
      ]
    },
    {
      "bufferView": 1,
      "componentType": 5126,
      "count": 22880,
      "type": "VEC3"
    },
    {
      "bufferView": 2,
      "componentType": 5123,
      "count": 17496,
      "type": "SCALAR"
    },
    {
      "bufferView": 2,
      "componentType": 5123,
      "count": 92160,
      "type": "SCALAR",
      "byteOffset": 34992
    },
    {
      "bufferView": 2,
      "componentType": 5123,
      "count": 5376,
      "type": "SCALAR",
      "byteOffset": 219312
    },
    {
      "bufferView": 2,
      "componentType": 5123,
      "count": 11520,
      "type": "SCALAR",
      "byteOffset": 230064
    }
  ],
  "bufferViews": [
    {
      "buffer": 0,
      "byteLength": 274560,
      "target": 34962,
      "byteStride": 12
    },
    {
      "buffer": 0,
      "byteOffset": 274560,
      "byteLength": 274560,
      "target": 34962,
      "byteStride": 12
    },
    {
      "buffer": 0,
      "byteOffset": 549120,
      "byteLength": 253104,
      "target": 34963
    }
  ],
  "buffers": [
    {
      "uri": "data:application/octet-stream;base64,",
      "byteLength": 802224
    }
  ]
}