{
  "asset": {
    "version": "2.0",
    "generator": "Sketchup glTF Exporter by Evan Prananta."
  },
  "scene": 0,
  "scenes": [
    {
      "nodes": [
        0
      ]
    }
  ],
  "samplers": [
    {
    }
  ],
  "nodes": [
    {
      "name": "root",
      "mesh": 0
    }
  ],
  "materials": [
    {
      "pbrMetallicRoughness": {
        "baseColorFactor": [
          0.6121,
          0.6121,
          0.6121,
          1.0
        ],
        "metallicFactor": 0.1,
        "roughnessFactor": 0.5
      },
      "name": "default material",
      "doubleSided": true
    },
    {
      "pbrMetallicRoughness": {
        "baseColorTexture": {
          "index": 0
        },
        "metallicFactor": 0.75,
        "roughnessFactor": 0.0
      },
      "name": "[Metal_Aluminum_Anodized]1",
      "doubleSided": true,
      "alphaMode": "OPAQUE"
    },
    {
      "pbrMetallicRoughness": {
        "baseColorFactor": [
          0.1275,
          0.3066,
          0.8513,
          0.5
        ],
        "metallicFactor": 0.1,
        "roughnessFactor": 0.9
      },
      "name": "Translucent_Glass_Blue",
      "doubleSided": true,
      "alphaMode": "BLEND"
    },
    {
      "pbrMetallicRoughness": {
        "baseColorFactor": [
          1.0,
          1.0,
          1.0,
          1.0
        ],
        "metallicFactor": 0.1,
        "roughnessFactor": 0.9
      },
      "name": "Color_000",
      "doubleSided": true
    },
    {
      "pbrMetallicRoughness": {
        "baseColorTexture": {
          "index": 1
        },
        "metallicFactor": 0.1,
        "roughnessFactor": 0.9
      },
      "name": "<LightGray>1",
      "doubleSided": true,
      "alphaMode": "OPAQUE"
    }
  ],
  "images": [
    {
      "bufferView": 0,
      "mimeType": "image/png"
    },
    {
      "bufferView": 1,
      "mimeType": "image/png"
    }
  ],
  "textures": [
    {
      "source": 0,
      "sampler": 0
    },
    {
      "source": 1,
      "sampler": 0
    }
  ],
  "meshes": [
    {
      "primitives": [
        {
          "attributes": {
            "POSITION": 0,
            "NORMAL": 1
          },
          "indices": 5,
          "mode": 4,
          "material": 0
        },
        {
          "attributes": {
            "POSITION": 2,
            "NORMAL": 3,
            "TEXCOORD_0": 4
          },
          "indices": 6,
          "mode": 4,
          "material": 1
        },
        {
          "attributes": {
            "POSITION": 0,
            "NORMAL": 1
          },
          "indices": 7,
          "mode": 4,
          "material": 2
        },
        {
          "attributes": {
            "POSITION": 0,
            "NORMAL": 1
          },
          "indices": 8,
          "mode": 4,
          "material": 3
        },
        {
          "attributes": {
            "POSITION": 2,
            "NORMAL": 3,
            "TEXCOORD_0": 4
          },
          "indices": 9,
          "mode": 4,
          "material": 4
        }
      ]
    }
  ],
  "accessors": [
    {
      "bufferView": 2,
      "componentType": 5126,
      "count": 3363,
      "type": "VEC3",
      "min": [
        0.0,
        -3.796405077356771e-18,
        -0.061999999999999694
      ],
      "max": [
        1.7999999999999992,
        1.2,
        0.018149097923511666
      ]
    },
    {
      "bufferView": 3,
      "componentType": 5126,
      "count": 3363,
      "type": "VEC3"
    },
    {
      "bufferView": 4,
      "componentType": 5126,
      "count": 6143,
      "type": "VEC3",
      "min": [
        0.026220689015710213,
        0.046000000000000006,
        -0.04599999999999955
      ],
      "max": [
        1.7753576896062273,
        1.1539999999999997,
        0.08166461583087421
      ]
    },
    {
      "bufferView": 5,
      "componentType": 5126,
      "count": 6143,
      "type": "VEC3"
    },
    {
      "bufferView": 6,
      "componentType": 5126,
      "count": 6143,
      "type": "VEC2"
    },
    {
      "bufferView": 7,
      "componentType": 5123,
      "count": 1410,
      "type": "SCALAR"
    },
    {
      "bufferView": 8,
      "componentType": 5123,
      "count": 8739,
      "type": "SCALAR"
    },
    {
      "bufferView": 7,
      "componentType": 5123,
      "count": 36,
      "type": "SCALAR",
      "byteOffset": 2820
    },
    {
      "bufferView": 7,
      "componentType": 5123,
      "count": 5760,
      "type": "SCALAR",
      "byteOffset": 2892
    },
    {
      "bufferView": 8,
      "componentType": 5123,
      "count": 216,
      "type": "SCALAR",
      "byteOffset": 17478
    }
  ],
  "bufferViews": [
    {
      "buffer": 0,
      "byteLength": 19973
    },
    {
      "buffer": 0,
      "byteOffset": 19973,
      "byteLength": 2126
    },
    {
      "buffer": 0,
      "byteOffset": 22104,
      "byteLength": 40356,
      "target": 34962,
      "byteStride": 12
    },
    {
      "buffer": 0,
      "byteOffset": 62460,
      "byteLength": 40356,
      "target": 34962,
      "byteStride": 12
    },
    {
      "buffer": 0,
      "byteOffset": 102816,
      "byteLength": 73716,
      "target": 34962,
      "byteStride": 12
    },
    {
      "buffer": 0,
      "byteOffset": 176532,
      "byteLength": 73716,
      "target": 34962,
      "byteStride": 12
    },
    {
      "buffer": 0,
      "byteOffset": 250248,
      "byteLength": 49144,
      "target": 34962,
      "byteStride": 8
    },
    {
      "buffer": 0,
      "byteOffset": 299392,
      "byteLength": 14412,
      "target": 34963
    },
    {
      "buffer": 0,
      "byteOffset": 313804,
      "byteLength": 17910,
      "target": 34963
    }
  ],
  "buffers": [
    {
      "uri": "data:application/octet-stream;base64,",
      "byteLength": 331714
    }
  ]
}